<?xml version="1.0" standalone="no"?>
<!DOCTYPE svg PUBLIC "-//W3C//DTD SVG 1.1//EN" "http://www.w3.org/Graphics/SVG/1.1/DTD/svg11.dtd" >
<svg xmlns="http://www.w3.org/2000/svg">
<metadata>
<json>
<![CDATA[
{
	"fontFamily": "fontello",
	"description": "Font generated by IcoMoon.",
	"majorVersion": 1,
	"minorVersion": 0,
	"version": "Version 1.0",
	"fontId": "fontello",
	"psName": "fontello",
	"subFamily": "Regular",
	"fullName": "fontello"
}
]]>
</json>
</metadata>
<defs>
<font id="fontello" horiz-adv-x="1024">
<font-face units-per-em="1024" ascent="870.850439882698" descent="-153.14956011730206" />
<missing-glyph horiz-adv-x="1024" />
<glyph unicode="&#x20;" horiz-adv-x="0" d="" />
<glyph unicode="&#xe800;" glyph-name="user" data-tags="user" horiz-adv-x="735" d="M733.999 37.065q0-61.68-35.98-106.912t-86.352-45.232h-489.332q-50.372 0-86.352 45.232t-35.98 106.912q0 49.344 5.14 92.52t17.476 87.38 33.924 75.044 53.456 51.4 78.128 19.532q75.044-74.016 178.874-74.016t179.902 74.016q43.176 0 77.1-19.532t53.456-51.4 33.924-75.044 18.504-87.38 4.112-92.52zM586.994 545.931q0-90.464-63.736-155.229t-156.257-64.764-155.229 64.764-64.764 155.229 64.764 156.257 155.229 64.764 156.257-64.764 63.736-156.257z" />
<glyph unicode="&#xe801;" glyph-name="clock" data-tags="clock" horiz-adv-x="882" d="M514.004 527.426v-257.002q0-7.196-5.14-12.336t-13.364-5.14h-182.986q-8.224 0-13.364 5.14t-5.14 12.336v37.008q0 8.224 5.14 13.364t13.364 5.14h128.5v201.49q0 8.224 5.14 13.364t12.336 5.14h37.008q8.224 0 13.364-5.14t5.14-13.364zM752.503 325.937q0 85.324-42.148 156.257t-113.080 114.108-156.257 42.148-157.285-42.148-113.080-114.108-42.148-156.257 42.148-156.257 113.080-114.108 157.285-42.148 156.257 42.148 113.080 114.108 42.148 156.257zM881.005 325.937q0-120.276-58.596-221.022t-160.369-160.369-221.022-59.624-222.050 59.624-159.341 160.369-59.624 221.022 59.624 221.022 159.341 160.369 222.050 59.624 221.022-59.624 160.369-160.369 58.596-221.022z" />
<glyph unicode="&#xe802;" glyph-name="comment" data-tags="comment" d="M1028.010 325.937q0-99.716-68.876-184.014t-187.098-133.641-258.030-49.344q-40.092 0-83.268 4.112-113.080-99.716-264.199-138.781-27.756-8.224-64.764-12.336-10.28-1.028-17.476 5.14t-10.28 16.448v1.028q-2.056 2.056 0 6.168t1.028 6.168 2.056 5.14l4.112 5.14t4.112 5.14 4.112 5.14q4.112 5.14 17.476 19.532t20.56 22.616 17.476 22.616 18.504 28.784 15.42 33.924 15.42 43.176q-90.464 51.4-141.865 126.444t-52.428 161.397q0 75.044 41.12 142.893t108.968 117.192 164.481 78.128 199.434 28.784q139.809 0 258.030-49.344t187.098-133.641 68.876-184.014z" />
<glyph unicode="&#xe803;" glyph-name="home" data-tags="home" horiz-adv-x="953" d="M807.227 277.004v-274.211q0-15.405-11.297-25.675t-25.675-11.297h-219.779v219.779h-146.861v-219.779h-219.779q-15.405 0-25.675 11.297t-11.297 25.675v274.211q0 1.027 0 2.054t0 2.054l329.669 271.13 329.669-271.13q1.027-1.027 1.027-4.108zM934.576 317.057l-34.918-42.107q-5.135-5.135-12.324-6.162h-2.054q-7.189 0-12.324 3.081l-396.424 330.696-396.424-330.696q-7.189-4.108-13.351-3.081-7.189 1.027-12.324 6.162l-35.945 42.107q-4.108 6.162-3.081 13.351t6.162 12.324l411.829 343.020q18.486 15.405 43.134 15.405t44.161-15.405l139.672-116.051v110.916q0 8.216 5.135 13.351t13.351 5.135h109.889q8.216 0 13.351-5.135t5.135-13.351v-233.13l125.294-104.754q6.162-4.108 6.162-12.324t-4.108-13.351z" />
<glyph unicode="&#xe804;" glyph-name="globe" data-tags="globe" horiz-adv-x="881" d="M440.585 773.047q119.132 0 220.806-59.566t160.212-160.212 58.539-220.806-58.539-220.806-160.212-160.212-220.806-59.566-221.833 59.566-159.185 160.212-59.566 220.806 59.566 220.806 159.185 160.212 221.833 59.566zM597.718 474.189q-2.054-1.027-6.162-5.135t-7.189-6.162q1.027 0 2.054 3.081t3.081 6.162 2.054 4.108q3.081 4.108 12.324 8.216 8.216 4.108 29.783 7.189 19.513 5.135 29.783-6.162-1.027 1.027 5.135 7.189t8.216 7.189 8.216 3.081 9.243 4.108l1.027 12.324q-7.189-1.027-10.27 4.108t-3.081 12.324q0-2.054-4.108-5.135 0 4.108-2.054 5.135t-7.189-1.027-5.135-1.027q-5.135 2.054-8.216 5.135t-5.135 9.243-2.054 8.216q-1.027 3.081-5.135 6.162t-5.135 6.162q-1.027 1.027-2.054 3.081t-1.027 4.108-3.081 3.081-3.081 1.027-4.108-3.081-4.108-5.135-2.054-3.081q-2.054 1.027-4.108 1.027t-2.054-1.027-3.081-1.027-3.081-2.054q-1.027-2.054-4.108-2.054t-5.135-1.027q8.216 3.081-1.027 6.162-5.135 2.054-9.243 2.054 6.162 2.054 5.135 6.162t-5.135 8.216h3.081q-1.027 2.054-5.135 5.135t-10.27 5.135-7.189 3.081q-5.135 3.081-19.513 5.135t-18.486 1.027q-3.081-4.108-3.081-6.162t2.054-8.216 2.054-7.189q1.027-3.081-3.081-7.189t-3.081-7.189q0-4.108 7.189-9.243t6.162-12.324q-2.054-4.108-9.243-9.243t-9.243-6.162q-3.081-5.135-1.027-11.297t6.162-9.243q1.027-1.027 1.027-2.054t-2.054-3.081-3.081-2.054-4.108-2.054l-1.027-1.027q-7.189-3.081-12.324 3.081t-7.189 15.405q-4.108 14.378-9.243 17.459-13.351 4.108-16.432-1.027-3.081 7.189-23.621 15.405-14.378 5.135-33.891 2.054 4.108 0 0 8.216-4.108 9.243-10.27 7.189 1.027 3.081 2.054 10.27t0 7.189q2.054 8.216 7.189 13.351 1.027 1.027 4.108 5.135t5.135 7.189 1.027 4.108q19.513-3.081 28.756 6.162 2.054 3.081 6.162 9.243t6.162 10.27q5.135 3.081 8.216 3.081t8.216-3.081 8.216-3.081q8.216-1.027 8.216 6.162t-4.108 11.297q7.189 0 2.054 10.27-2.054 4.108-5.135 5.135-6.162 2.054-15.405-3.081-4.108-2.054 2.054-4.108-1.027 0-6.162-6.162t-9.243-10.27-9.243 3.081q0 0-3.081 7.189t-5.135 8.216q-5.135 0-9.243-9.243 1.027 5.135-6.162 9.243t-14.378 4.108q11.297 7.189-4.108 15.405-4.108 3.081-12.324 3.081t-11.297-2.054q-2.054-4.108-3.081-7.189t3.081-4.108 6.162-3.081 6.162-2.054 5.135-2.054q8.216-6.162 5.135-8.216-1.027 0-5.135-2.054t-6.162-2.054-4.108-2.054q-1.027-3.081 0-8.216t-1.027-8.216q-3.081 3.081-5.135 10.27t-4.108 9.243q4.108-5.135-14.378-3.081h-5.135q-3.081 0-9.243-1.027t-12.324-1.027-7.189 5.135q-3.081 4.108 0 11.297 0 2.054 2.054 1.027-2.054 2.054-6.162 5.135t-6.162 5.135q-25.675-8.216-53.404-23.621 3.081 0 6.162 1.027t8.216 4.108 5.135 3.081q19.513 7.189 24.648 4.108l3.081 2.054q7.189-9.243 11.297-14.378-4.108 3.081-17.459 1.027-11.297-3.081-12.324-7.189 4.108-6.162 2.054-10.27-2.054 2.054-6.162 6.162t-8.216 6.162-8.216 3.081q-9.243 0-13.351-1.027-83.187-46.215-134.537-127.348 4.108-4.108 7.189-4.108 2.054-1.027 3.081-5.135t1.027-6.162 6.162 1.027q5.135-4.108 2.054-10.27 1.027 0 25.675-15.405 10.27-10.27 11.297-12.324 2.054-6.162-5.135-10.27-1.027 1.027-5.135 5.135t-5.135 2.054q-2.054-3.081 0-10.27t6.162-7.189q-4.108 0-5.135-9.243t-2.054-20.54 0-13.351l1.027-1.027q-2.054-6.162 3.081-19.513t12.324-11.297q-7.189-1.027 11.297-24.648 3.081-4.108 4.108-5.135 2.054-1.027 7.189-4.108t9.243-6.162 5.135-5.135q2.054-3.081 6.162-13.351t8.216-13.351q-2.054-3.081 5.135-11.297t6.162-13.351q-1.027 0-2.054-1.027t-1.027 0q2.054-4.108 9.243-8.216t8.216-7.189q1.027-2.054 1.027-6.162t2.054-6.162 4.108-1.027q2.054 11.297-13.351 35.945-8.216 13.351-9.243 16.432-2.054 2.054-4.108 8.216t-2.054 8.216q1.027 0 3.081 0t5.135-2.054 4.108-3.081 1.027-1.027q-1.027-4.108 1.027-10.27t7.189-10.27 10.27-11.297 6.162-7.189q4.108-4.108 8.216-11.297t0-8.216q5.135 0 11.297-5.135t10.27-11.297q3.081-5.135 4.108-15.405t3.081-13.351q1.027-4.108 5.135-8.216t7.189-5.135l9.243-5.135t7.189-3.081q3.081-2.054 10.27-6.162t12.324-7.189q6.162-2.054 9.243-2.054t8.216 1.027 8.216 2.054q8.216 1.027 16.432-8.216t12.324-12.324q20.54-10.27 30.81-6.162-1.027 0 1.027-4.108t4.108-9.243 5.135-8.216 3.081-5.135q3.081-3.081 10.27-8.216t10.27-8.216q4.108 2.054 4.108 5.135-1.027-5.135 4.108-11.297t10.27-6.162q8.216 2.054 8.216 18.486-17.459-8.216-27.729 10.27 0 0-2.054 3.081t-2.054 5.135-1.027 4.108 0 5.135 2.054 1.027q5.135 0 6.162 2.054t-1.027 7.189-2.054 8.216q-1.027 4.108-6.162 11.297t-7.189 8.216q-3.081-5.135-9.243-4.108t-9.243 5.135q0-1.027-1.027-3.081t-1.027-4.108q-7.189 0-8.216 0 1.027 2.054 1.027 10.27t2.054 13.351q1.027 2.054 3.081 6.162t5.135 9.243 2.054 7.189-3.081 5.135-9.243 1.027q-11.297 0-15.405-11.297-1.027-2.054-2.054-6.162t-2.054-6.162-5.135-4.108-14.378-1.027-13.351 3.081q-8.216 4.108-13.351 16.432t-5.135 20.54q0 6.162 1.027 15.405t2.054 14.378-3.081 14.378q2.054 1.027 5.135 5.135t5.135 6.162q2.054 1.027 3.081 1.027t3.081 0 2.054 1.027 1.027 3.081q0 1.027-2.054 2.054-1.027 1.027-2.054 1.027 4.108-1.027 16.432 1.027t15.405-1.027q9.243-6.162 12.324 1.027 0 1.027-1.027 6.162t0 7.189q3.081-15.405 16.432-5.135 2.054-1.027 9.243-3.081t9.243-2.054q2.054-1.027 4.108-3.081t3.081-3.081 3.081 0 5.135 4.108q5.135-8.216 7.189-13.351 6.162-23.621 10.27-25.675t6.162-1.027 3.081 5.135 0 8.216-1.027 7.189l-1.027 5.135v14.378q-8.216 2.054-10.27 7.189t0 10.27 9.243 10.27q0 1.027 4.108 2.054t9.243 4.108 7.189 4.108q12.324 11.297 8.216 20.54 4.108 0 6.162 5.135 0 0-2.054 2.054t-5.135 2.054-2.054 2.054q5.135 2.054 1.027 8.216 3.081 2.054 4.108 7.189t4.108 5.135q5.135-6.162 12.324-1.027 5.135 5.135 1.027 9.243 2.054 4.108 11.297 6.162t10.27 5.135q4.108-1.027 5.135 1.027t0 7.189 2.054 7.189q2.054 2.054 9.243 5.135t7.189 2.054l9.243 7.189q2.054 2.054 0 2.054 10.27-1.027 18.486 6.162 5.135 6.162-4.108 11.297 2.054 4.108-1.027 5.135t-9.243 4.108q2.054 0 7.189 0t5.135 1.027q9.243 5.135-3.081 9.243-10.27 2.054-24.648-7.189zM504.259-29.044q118.105 21.567 200.266 108.862-1.027 2.054-7.189 2.054t-7.189 2.054q-10.27 4.108-13.351 5.135 1.027 4.108-1.027 7.189t-5.135 5.135-7.189 5.135-6.162 4.108q-1.027 1.027-4.108 3.081t-4.108 3.081-4.108 2.054-5.135 2.054-5.135-1.027l-2.054-1.027q-2.054 0-3.081-1.027t-3.081-2.054-2.054-1.027 0-2.054q-12.324 10.27-20.54 13.351-3.081 0-6.162 3.081t-6.162 4.108-6.162 0-6.162-3.081q-3.081-3.081-4.108-9.243t-1.027-7.189q-4.108 3.081 0 10.27t1.027 10.27q-1.027 3.081-6.162 2.054t-6.162-2.054-7.189-5.135-5.135-3.081-4.108-3.081-5.135-5.135q-2.054-2.054-4.108-6.162t-2.054-6.162q-1.027 2.054-7.189 3.081t-5.135 3.081q1.027-5.135 2.054-19.513t3.081-22.594q4.108-17.459-7.189-26.702-15.405-14.378-16.432-23.621-2.054-12.324 7.189-14.378 0-4.108-5.135-12.324t-4.108-12.324q0-3.081 2.054-9.243z" />
<glyph unicode="&#xe805;" glyph-name="text-height" data-tags="text-height" d="M1002.211 7.551q19.57 0 24.72-10.3t-6.18-25.75l-73.13-92.701q-11.33-15.45-27.81-15.45t-27.81 15.45l-73.13 92.701q-11.33 15.45-6.18 25.75t24.72 10.3h45.32v589.172h-45.32q-19.57 0-24.72 10.3t6.18 25.75l73.13 92.701q11.33 15.45 27.81 15.45t27.81-15.45l73.13-92.701q11.33-15.45 6.18-25.75t-24.72-10.3h-45.32v-589.172h45.32zM46.35 742.987l30.9-15.45q7.21-3.090 121.542-3.090 25.75 0 76.22 1.030t75.19 1.030q21.63 0 61.8 0t61.8 0h168.923q3.090 0 12.36 0t11.33 0 9.27 1.030 10.3 5.15 8.24 10.3l24.72 1.030q2.060 0 7.21-1.030t8.24 0q1.030-63.86 1.030-192.614 0-46.35-2.060-62.83-22.66-8.24-39.14-10.3-14.42 24.72-31.93 73.13-1.030 5.15-6.18 27.81t-8.24 42.23-4.12 20.6q-3.090 4.12-7.21 7.21t-8.24 3.090-8.24 1.030-10.3 1.030-9.27-1.030q-9.27 0-38.11 1.030t-42.23 0-37.080-1.030-41.2-3.090q-5.15-47.38-4.12-78.28 0-54.59 1.030-223.514t1.030-261.624q0-9.27-1.030-41.2t0-52.53 7.21-39.14q22.66-12.36 71.070-24.72t69.010-21.63q2.060-22.66 2.060-28.84 0-8.24-1.030-16.48l-19.57-1.030q-44.29-1.030-125.662 5.15t-118.452 5.15q-28.84 0-87.55-5.15t-86.52-5.15q-2.060 29.87-2.060 29.87v5.15q9.27 15.45 35.020 24.72t56.65 17.51 45.32 15.45q10.3 23.69 10.3 219.394 0 58.71-1.030 175.103t-2.060 174.073v66.95q0 1.030 0 9.27t1.030 14.42-1.030 14.42-2.060 13.39-2.060 8.24q-7.21 7.21-93.731 7.21-18.54 0-53.56-7.21t-45.32-15.45q-11.33-7.21-19.57-41.2t-18.54-63.86-24.72-30.9q-23.69 15.45-31.93 25.75v220.424z" />
<glyph unicode="&#xe806;" glyph-name="italic" data-tags="italic" horiz-adv-x="591" d="M0-138.712l10.3 49.44q12.36 4.12 35.020 9.27t41.2 11.33 33.99 13.39q16.48 19.57 23.69 57.68 1.030 4.12 36.050 166.863t64.89 312.096 29.87 169.953v14.42q-13.39 8.24-30.9 11.33t-40.17 4.12-32.96 3.090l10.3 59.74q19.57-1.030 69.010-4.12t86.52-4.12 69.010-1.030q27.81 0 56.65 1.030t70.040 4.12 55.62 4.12q-2.060-22.66-10.3-51.5-17.51-6.18-58.71-16.48t-61.8-19.57q-5.15-10.3-8.24-23.69t-5.15-23.69-4.12-25.75-4.12-24.72q-15.45-84.46-50.47-241.024t-44.29-203.944q-1.030-5.15-7.21-32.96t-11.33-52.53-9.27-47.38-4.12-32.96l1.030-10.3q9.27-3.090 106.092-18.54-2.060-24.72-9.27-56.65-6.18 0-18.54-1.030t-18.54-1.030q-16.48 0-50.47 6.18t-49.44 6.18q-79.31 1.030-118.452 1.030-28.84 0-81.37-5.15t-70.040-7.21z" />
<glyph unicode="&#xe807;" glyph-name="search" data-tags="search" horiz-adv-x="956" d="M662.304 339.218q0 106.092-75.19 181.284t-182.314 76.22-182.314-76.22-75.19-181.284 75.19-182.314 182.314-75.19 182.314 75.19 75.19 182.314zM956.89-139.742q0-29.87-22.66-51.5t-51.5-21.63q-30.9 0-51.5 21.63l-196.734 196.734q-103.001-71.070-229.694-71.070-82.4 0-157.593 31.93t-128.752 86.52-86.52 128.752-31.93 157.593 31.93 156.563 86.52 129.782 128.752 86.52 157.593 31.93 157.593-31.93 128.752-86.52 86.52-129.782 31.93-156.563q0-126.692-71.070-229.694l196.734-196.734q21.63-21.63 21.63-52.53z" />
<glyph unicode="&#xe808;" glyph-name="basket" data-tags="basket" horiz-adv-x="956" d="M367.717-65.581q0-29.87-21.63-51.5t-51.5-22.66-51.5 22.66-22.66 51.5 22.66 51.5 51.5 21.63 51.5-21.63 21.63-51.5zM882.728-65.581q0-29.87-21.63-51.5t-51.5-22.66-51.5 22.66-22.66 51.5 22.66 51.5 51.5 21.63 51.5-21.63 21.63-51.5zM956.89 559.641v-294.586q0-13.39-10.3-23.69t-22.66-12.36l-600.502-70.040q7.21-35.020 7.21-41.2 0-8.24-13.39-36.050h528.402q15.45 0 26.78-11.33t10.3-25.75-10.3-25.75-26.78-11.33h-588.142q-14.42 0-25.75 11.33t-11.33 25.75q0 6.18 5.15 18.54t9.27 20.6 12.36 22.66 8.24 17.51l-100.941 472.779h-117.422q-15.45 0-25.75 10.3t-11.33 25.75 11.33 26.78 25.75 10.3h147.293q9.27 0 16.48-3.090t10.3-9.27 8.24-14.42 4.12-14.42 3.090-17.51 3.090-14.42h690.114q14.42 0 25.75-11.33t11.33-25.75z" />
<glyph unicode="&#xe809;" glyph-name="user2" data-tags="user2" horiz-adv-x="737" d="M735.434 12.701q0-61.8-36.050-107.122t-86.52-45.32h-490.289q-50.47 0-86.52 45.32t-36.050 107.122q0 49.44 5.15 92.701t17.51 87.55 33.99 75.19 53.56 51.5 78.28 19.57q75.19-74.16 179.224-74.16t180.254 74.16q43.26 0 77.25-19.57t53.56-51.5 33.99-75.19 18.54-87.55 4.12-92.701zM588.142 522.561q0-90.641-63.86-155.533t-156.563-64.89-155.533 64.89-64.89 155.533 64.89 156.563 155.533 64.89 156.563-64.89 63.86-156.563z" />
<glyph unicode="&#xe80a;" glyph-name="right-open" data-tags="right-open" horiz-adv-x="737" d="M636.553 313.467l-426.428-427.458q-11.33-10.3-25.75-10.3t-25.75 10.3l-95.791 95.791q-11.33 11.33-11.33 25.75t11.33 25.75l304.886 305.916-304.886 304.886q-11.33 11.33-11.33 25.75t11.33 25.75l95.791 95.791q10.3 11.33 25.75 11.33t25.75-11.33l426.428-426.428q10.3-11.33 10.3-25.75t-10.3-25.75z" />
<glyph unicode="&#xe80b;" glyph-name="left-open" data-tags="left-open" horiz-adv-x="737" d="M673.634 644.102l-305.916-304.886 305.916-305.916q10.3-10.3 10.3-25.75t-10.3-25.75l-95.791-95.791q-11.33-10.3-25.75-10.3t-25.75 10.3l-426.428 427.458q-11.33 10.3-11.33 25.75t11.33 25.75l426.428 426.428q10.3 11.33 25.75 11.33t25.75-11.33l95.791-95.791q10.3-10.3 10.3-25.75t-10.3-25.75z" />
<glyph unicode="&#xe80c;" glyph-name="tags" data-tags="tags" horiz-adv-x="1103" d="M257.504 559.641q0 30.9-21.63 52.53t-51.5 20.6-52.53-20.6-21.63-52.53 21.63-51.5 52.53-21.63 51.5 21.63 21.63 51.5zM870.367 229.005q0-30.9-20.6-52.53l-282.226-282.226q-22.66-21.63-52.53-21.63-30.9 0-51.5 21.63l-410.978 410.978q-21.63 21.63-37.080 58.71t-15.45 66.95v238.964q0 29.87 21.63 51.5t51.5 22.66h239.994q29.87 0 66.95-15.45t58.71-37.080l410.978-410.978q20.6-21.63 20.6-51.5zM1091.821 229.005q0-30.9-21.63-52.53l-282.226-282.226q-22.66-21.63-52.53-21.63-20.6 0-33.99 8.24t-29.87 25.75l269.866 269.866q21.63 21.63 21.63 52.53 0 29.87-21.63 51.5l-410.978 410.978q-21.63 21.63-58.71 37.080t-66.95 15.45h128.752q29.87 0 66.95-15.45t58.71-37.080l410.978-410.978q21.63-21.63 21.63-51.5z" />
<glyph unicode="&#xe80d;" glyph-name="mail" data-tags="mail" d="M956.89-47.041v440.849q-18.54-20.6-40.17-37.080-153.473-118.452-245.144-194.674-28.84-24.72-47.38-38.11t-49.44-28.84-58.71-13.39h-2.060q-26.78 0-58.71 13.39t-49.44 28.84-47.38 38.11q-90.641 76.22-245.144 194.674-21.63 16.48-40.17 37.080v-440.849q0-7.21 6.18-13.39t12.36-5.15h846.677q7.21 0 12.36 5.15t6.18 13.39zM956.89 556.551v14.42t-1.030 7.21-1.030 7.21-3.090 5.15-5.15 4.12-8.24 2.060h-846.677q-7.21 0-12.36-6.18t-6.18-12.36q0-96.821 85.49-163.773 110.212-86.52 229.694-181.284 4.12-3.090 20.6-17.51t25.75-21.63 25.75-17.51 28.84-16.48 24.72-5.15h2.060q11.33 0 24.72 5.15t28.84 16.48 25.75 17.51 25.75 21.63 20.6 17.51q119.482 94.761 230.724 181.284 30.9 24.72 57.68 66.95t26.78 75.19zM1030.021 578.181v-625.223q0-38.11-26.78-64.89t-64.89-27.81h-846.677q-37.080 0-64.89 27.81t-26.78 64.89v625.223q0 38.11 26.78 64.89t64.89 26.78h846.677q38.11 0 64.89-26.78t26.78-64.89z" />
<glyph unicode="&#xe80e;" glyph-name="star" data-tags="star" horiz-adv-x="956" d="M956.89 445.309q0-12.36-15.45-27.81l-208.064-202.914 49.44-287.376q0-4.12 0-12.36 0-11.33-6.18-19.57t-17.51-9.27q-10.3 0-22.66 7.21l-258.534 135.963-257.504-135.963q-12.36-7.21-23.69-7.21t-17.51 9.27-6.18 19.57q0 4.12 1.030 12.36l49.44 287.376-209.094 202.914q-14.42 15.45-14.42 27.81 0 21.63 31.93 26.78l288.406 41.2 129.782 261.624q11.33 23.69 27.81 23.69t28.84-23.69l128.752-261.624 288.406-41.2q32.96-5.15 32.96-26.78z" />
<glyph unicode="&#xe80f;" glyph-name="star-empty" data-tags="star-empty" horiz-adv-x="956" d="M654.063 240.335l175.103 170.983-242.054 35.020-109.182 219.394-108.152-219.394-243.084-35.020 176.134-170.983-42.23-242.054 217.334 114.332 217.334-114.332zM956.89 445.309q0-12.36-15.45-27.81l-208.064-202.914 49.44-287.376q0-4.12 0-12.36 0-28.84-23.69-28.84-10.3 0-22.66 7.21l-258.534 135.963-257.504-135.963q-12.36-7.21-23.69-7.21t-17.51 9.27-6.18 19.57q0 4.12 1.030 12.36l49.44 287.376-209.094 202.914q-14.42 15.45-14.42 27.81 0 21.63 31.93 26.78l288.406 41.2 129.782 261.624q11.33 23.69 27.81 23.69t28.84-23.69l128.752-261.624 288.406-41.2q32.96-5.15 32.96-26.78z" />
<glyph unicode="&#xe810;" glyph-name="plus" data-tags="plus" horiz-adv-x="600" d="M566.512 353.638q30.9 0 30.9-51.5t-30.9-51.5h-216.304v-216.304q0-30.9-51.5-30.9t-51.5 30.9v216.304h-216.304q-30.9 0-30.9 51.5t30.9 51.5h216.304v216.304q0 30.9 51.5 30.9t51.5-30.9v-216.304h216.304z" />
<glyph unicode="&#xe811;" glyph-name="minus" data-tags="minus" horiz-adv-x="600" d="M566.512 353.638q30.9 0 30.9-51.5t-30.9-51.5h-535.612q-30.9 0-30.9 51.5t30.9 51.5h535.612z" />
<glyph unicode="&#xe812;" glyph-name="trash" data-tags="trash" horiz-adv-x="784" d="M51.5 413.379q125.662-72.1 339.907-72.1t339.907 72.1l-55.62-500.589q-2.060-14.42-36.050-37.080t-103.001-44.29-145.233-21.63-144.203 21.63-103.001 44.29-37.080 37.080zM554.152 722.387q96.821-18.54 162.743-56.65t65.92-73.13v-10.3q0-59.74-115.362-101.971t-276.046-42.23-276.046 42.23-115.362 101.971v10.3q0 35.020 65.92 73.13t162.743 56.65l43.26 49.44q22.66 26.78 72.1 26.78h94.761q53.56 0 72.1-26.78zM498.529 607.022h86.52q-94.761 113.302-107.122 129.782-14.42 16.48-32.96 16.48h-105.061q-22.66 0-32.96-16.48l-109.182-129.782h86.52l65.92 67.98h84.46z" />
<glyph unicode="&#xe813;" glyph-name="attention-circled" data-tags="attention-circled" horiz-adv-x="884" d="M441.879 744.017q119.482 0 221.454-59.74t160.683-160.683 58.71-221.454-58.71-221.454-160.683-160.683-221.454-59.74-222.484 59.74-159.653 160.683-59.74 221.454 59.74 221.454 159.653 160.683 222.484 59.74zM515.009 27.121v109.182q0 8.24-5.15 13.39t-12.36 5.15h-110.212q-8.24 0-13.39-5.15t-6.18-13.39v-109.182q0-8.24 6.18-13.39t13.39-6.18h110.212q7.21 0 12.36 6.18t5.15 13.39zM513.979 224.885l10.3 356.387q0 7.21-6.18 10.3-5.15 5.15-13.39 5.15h-126.692q-8.24 0-13.39-5.15-6.18-3.090-6.18-10.3l10.3-356.387q0-6.18 5.15-10.3t14.42-4.12h106.092q8.24 0 13.39 4.12t6.18 10.3z" />
<glyph unicode="&#xe814;" glyph-name="ok-circled2" data-tags="ok-circled2" horiz-adv-x="884" d="M673.634 349.518l-243.084-242.054q-11.33-11.33-25.75-11.33t-25.75 11.33l-168.923 168.923q-11.33 11.33-11.33 25.75t11.33 25.75l58.71 58.71q10.3 11.33 25.75 11.33t25.75-11.33l84.46-84.46 157.593 158.623q11.33 10.3 25.75 10.3t26.78-10.3l58.71-58.71q10.3-11.33 10.3-26.78t-10.3-25.75zM753.975 302.136q0 85.49-42.23 156.563t-113.302 114.332-156.563 42.23-157.593-42.23-113.302-114.332-42.23-156.563 42.23-156.563 113.302-114.332 157.593-42.23 156.563 42.23 113.302 114.332 42.23 156.563zM882.728 302.136q0-120.512-58.71-221.454t-160.683-160.683-221.454-59.74-222.484 59.74-159.653 160.683-59.74 221.454 59.74 221.454 159.653 160.683 222.484 59.74 221.454-59.74 160.683-160.683 58.71-221.454z" />
<glyph unicode="&#xe815;" glyph-name="ok" data-tags="ok" d="M961.010 491.66q0-22.66-16.48-39.14l-494.409-494.409q-16.48-15.45-39.14-15.45t-39.14 15.45l-286.346 286.346q-15.45 16.48-15.45 39.14t15.45 39.14l78.28 78.28q16.48 16.48 39.14 16.48t39.14-16.48l168.923-169.953 376.987 378.017q16.48 16.48 39.14 16.48t39.14-16.48l78.28-78.28q16.48-15.45 16.48-39.14z" />
<glyph unicode="&#xe816;" glyph-name="shopping-bag-1" data-tags="shopping-bag-1" d="M927.019-75.881l-59.74 668.484c-1.030 13.39-12.36 22.66-25.75 22.66h-124.632c0 111.242-90.641 201.884-201.884 201.884s-201.884-90.641-201.884-201.884h-124.632c-13.39 0-24.72-9.27-25.75-22.66l-58.71-668.484c0-1.030 0-1.030 0-2.060 0-74.16 67.98-134.933 152.443-134.933h518.099c83.43 0 152.443 60.77 152.443 134.933 0 1.030 0 1.030 0 2.060zM515.009 765.647c83.43 0 150.383-66.95 150.383-150.383h-300.766c0 83.43 67.98 150.383 150.383 150.383zM774.575-161.373h-518.099c-55.62 0-100.941 37.080-101.971 82.4l57.68 643.763h100.941v-89.611c0-14.42 11.33-25.75 25.75-25.75s25.75 11.33 25.75 25.75v89.611h300.766v-89.611c0-14.42 11.33-25.75 25.75-25.75s25.75 11.33 25.75 25.75v89.611h100.941l57.68-643.763c-1.030-45.32-46.35-82.4-100.941-82.4z" />
<glyph unicode="&#xe817;" glyph-name="search-1" data-tags="search-1" d="M1030.021-131.502l-353.297 306.946c51.5 64.89 82.4 147.293 82.4 235.874 0 209.094-170.983 379.047-380.077 379.047s-379.047-169.953-379.047-379.047 169.953-379.047 379.047-379.047c94.761 0 180.254 33.99 247.204 90.641l356.387-309.006 47.38 54.59zM379.047 80.682c-182.314 0-330.637 148.323-330.637 330.637s148.323 330.637 330.637 330.637c182.314 0 331.667-148.323 331.667-330.637s-149.353-330.637-331.667-330.637z" />
<glyph unicode="&#xe818;" glyph-name="garbage" data-tags="garbage" d="M944.529 668.824h-214.244v35.020c0 62.83-50.47 113.302-113.302 113.302h-203.944c-61.8 0-113.302-50.47-113.302-113.302v-35.020h-214.244c-15.45 0-28.84-12.36-28.84-28.84s13.39-27.81 28.84-27.81h51.5v-672.604c0-83.43 69.010-152.443 153.473-152.443h449.089c84.46 0 153.473 69.010 153.473 152.443v672.604h51.5c15.45 0 28.84 12.36 28.84 27.81s-13.39 28.84-28.84 28.84zM357.417 703.847c0 30.9 24.72 56.65 55.62 56.65h203.944c30.9 0 55.62-25.75 55.62-56.65v-35.020h-315.186v35.020zM835.347-60.431c0-52.53-42.23-95.791-95.791-95.791h-449.089c-52.53 0-95.791 43.26-95.791 95.791v672.604h641.703v-672.604h-1.030zM515.009-53.221c15.45 0 28.84 12.36 28.84 28.84v504.709c0 16.48-13.39 28.84-28.84 28.84s-28.84-12.36-28.84-28.84v-504.709c0-15.45 13.39-28.84 28.84-28.84zM328.577-21.29c15.45 0 28.84 12.36 28.84 27.81v442.909c0 15.45-13.39 28.84-28.84 28.84s-28.84-13.39-28.84-28.84v-442.909c0-15.45 13.39-27.81 28.84-27.81zM701.444-21.29c16.48 0 28.84 12.36 28.84 27.81v442.909c0 15.45-12.36 28.84-28.84 28.84s-28.84-13.39-28.84-28.84v-442.909c0-15.45 13.39-27.81 28.84-27.81z" />
<glyph unicode="&#xe819;" glyph-name="arrows-cw" data-tags="arrows-cw" horiz-adv-x="884" d="M868.307 210.465q0-3.090 0-4.12-37.080-154.503-154.503-250.294t-275.016-95.791q-83.43 0-161.713 31.93t-140.083 90.641l-74.16-74.16q-11.33-11.33-25.75-11.33t-25.75 11.33-11.33 25.75v257.504q0 14.42 11.33 25.75t25.75 11.33h257.504q14.42 0 25.75-11.33t10.3-25.75-10.3-25.75l-79.31-79.31q41.2-37.080 92.701-58.71t108.152-20.6q76.22 0 143.173 38.11t107.122 101.971q6.18 10.3 30.9 67.98 4.12 13.39 16.48 13.39h110.212q8.24 0 13.39-6.18t5.15-12.36zM882.728 669.854v-257.504q0-14.42-10.3-25.75t-26.78-11.33h-257.504q-14.42 0-25.75 11.33t-10.3 25.75 10.3 25.75l79.31 79.31q-84.46 79.31-199.824 79.31-77.25 0-144.203-38.11t-107.122-101.971q-6.18-10.3-29.87-67.98-5.15-13.39-17.51-13.39h-114.332q-7.21 0-13.39 6.18t-5.15 12.36v4.12q37.080 154.503 155.533 250.294t276.046 95.791q83.43 0 162.743-31.93t141.113-90.641l74.16 74.16q11.33 11.33 25.75 11.33t26.78-11.33 10.3-25.75z" />
<glyph unicode="&#xe81a;" glyph-name="up-open" data-tags="up-open" d="M964.359 82.899l-94.484-94.484q-11.297-10.27-26.702-10.27t-25.675 10.27l-303.994 305.021-303.994-305.021q-11.297-10.27-25.675-10.27t-25.675 10.27l-95.511 94.484q-11.297 11.297-11.297 26.702t11.297 25.675l425.18 425.18q11.297 10.27 25.675 10.27t25.675-10.27l425.18-425.18q11.297-11.297 11.297-25.675t-11.297-26.702z" />
<glyph unicode="&#xe81b;" glyph-name="login" data-tags="login" horiz-adv-x="925" d="M821.605 794.614q43.134 0 72.917-29.783t29.783-72.917v-718.904q0-41.080-29.783-71.89t-72.917-30.81h-462.152q-41.080 0-70.863 30.81t-29.783 71.89v102.7h100.646v-102.7h462.152v718.904h-462.152v-154.050h-100.646v154.050q0 43.134 29.783 72.917t70.863 29.783h462.152zM462.152 106.52v123.24h-462.152v154.050h462.152v123.24l205.401-199.239z" />
<glyph unicode="&#xe81c;" glyph-name="pencil" data-tags="pencil" horiz-adv-x="881" d="M208.482-34.179l51.35 52.377-134.537 134.537-52.377-52.377v-61.62h73.944v-72.917h61.62zM507.34 497.81q0 12.324-12.324 12.324-5.135 0-9.243-4.108l-311.183-310.156q-4.108-4.108-4.108-10.27 0-12.324 13.351-12.324 5.135 0 9.243 4.108l311.183 310.156q3.081 4.108 3.081 10.27zM476.53 607.7l238.265-238.265-476.53-477.557h-238.265v239.292zM867.82 552.242q0-29.783-20.54-51.35l-95.511-95.511-238.265 239.292 95.511 94.484q20.54 21.567 51.35 21.567 29.783 0 52.377-21.567l134.537-134.537q20.54-22.594 20.54-52.377z" />
<glyph unicode="&#xe81d;" glyph-name="truck" data-tags="truck" d="M366.641 38.738q0 29.783-21.567 52.377t-51.35 21.567-51.35-21.567-22.594-52.377 22.594-51.35 51.35-21.567 51.35 21.567 21.567 51.35zM146.861 332.462h219.779v146.861h-90.376q-7.189 0-12.324-5.135l-111.943-111.943q-5.135-5.135-5.135-12.324v-17.459zM880.145 38.738q0 29.783-21.567 52.377t-51.35 21.567-51.35-21.567-22.594-52.377 22.594-51.35 51.35-21.567 51.35 21.567 21.567 51.35zM1027.006 662.131v-586.421q0-8.216-2.054-15.405t-8.216-10.27-9.243-6.162-13.351-4.108-13.351-1.027-14.378 0-12.324 0q0-60.593-43.134-103.727t-103.727-43.134-103.727 43.134-43.134 103.727h-219.779q0-60.593-43.134-103.727t-103.727-43.134-103.727 43.134-43.134 103.727h-36.972q-1.027 0-12.324 0t-15.405 0-12.324 1.027-13.351 4.108-9.243 6.162-8.216 10.27-2.054 15.405q0 15.405 10.27 25.675t25.675 11.297v182.807q0 5.135 0 20.54t0 21.567 2.054 19.513 3.081 21.567 8.216 17.459 13.351 17.459l112.97 112.97q11.297 11.297 28.756 18.486t33.891 7.189h91.403v109.889q0 15.405 11.297 26.702t25.675 10.27h586.421q15.405 0 25.675-10.27t11.297-26.702z" />
<glyph unicode="&#xe81e;" glyph-name="arrows-ccw" data-tags="arrows-ccw" horiz-adv-x="842" d="M190.836 123.52l119.016 119.016v-299.593l-283.177 16.416 90.288 88.236q-119.016 125.172-116.964 297.541t123.12 295.489q102.6 102.6 246.24 119.016l4.104-104.652q-102.6-16.416-176.472-90.288-90.288-90.288-92.34-218.538t86.184-222.642zM531.47 737.070l283.177-16.416-90.288-88.236q119.016-125.172 116.964-297.541t-123.12-295.489q-98.496-100.548-246.24-121.068l-2.052 106.704q100.548 16.416 174.42 90.288 90.288 90.288 92.34 218.538t-86.184 222.642l-116.964-119.016z" />
<glyph unicode="&#xe81f;" glyph-name="heart-empty" data-tags="heart-empty" d="M953.157 510.324q0 47.196-12.312 82.080t-31.806 56.43-47.196 33.858-53.352 18.468-56.43 4.104-63.612-14.364-63.612-36.936-49.248-41.040-34.884-34.884q-10.26-13.338-27.702-13.338t-27.702 13.338q-14.364 15.39-34.884 34.884t-49.248 41.040-63.612 36.936-63.612 14.364-56.43-4.104-53.352-18.468-47.196-33.858-31.806-56.43-12.312-82.080q0-95.418 107.73-203.148l332.425-320.113 332.425 320.113q107.73 107.73 107.73 203.148zM1026.003 510.324q0-126.198-131.328-257.526l-356.023-343.711q-10.26-10.26-25.65-10.26t-25.65 10.26l-357.049 344.737q-5.13 5.13-15.39 15.39t-31.806 37.962-38.988 55.404-30.78 68.742-13.338 79.002q0 126.198 72.846 196.992t201.096 71.82q34.884 0 71.82-12.312t68.742-33.858 55.404-38.988 43.092-38.988q20.52 20.52 43.092 38.988t55.404 38.988 68.742 33.858 71.82 12.312q128.25 0 201.096-71.82t72.846-196.992z" />
<glyph unicode="&#xe839;" glyph-name="spin6" data-tags="spin6" d="M880.668-49.101c-194.674-195.704-535.612-177.164-726.164 13.39-195.704 195.704-206.004 508.829-28.84 715.864 11.33 13.39 21.63 26.78 36.050 35.020 37.080 23.69 87.55 18.54 120.512-13.39 30.9-31.93 36.050-78.28 16.48-115.362-5.15-9.27-9.27-15.45-16.48-22.66-144.203-155.533-149.353-390.377-8.24-531.492 157.593-157.593 419.218-124.632 558.272 35.020 109.182 125.662 146.263 305.916 79.31 464.539-85.49 203.944-314.156 299.736-525.309 228.664v1.030c243.084 84.46 506.769-24.72 605.652-259.564 73.13-172.013 38.11-365.657-74.16-507.799-11.33-15.45-23.69-29.87-37.080-43.26z" />
<glyph unicode="&#xe900;" glyph-name="quill-drawing-a-line" data-tags="quill-drawing-a-line" d="M94.11-124.102l13.679 54.635-37.723 14.893-25.912-42.704c0 0 14.286-38.75-1.581-69.726 0.012-0.003 19.867 33.816 51.536 42.902zM68.767-99.031c4.644 1.903 9.996-0.269 11.914-4.829 1.934-4.559-0.269-9.81-4.913-11.712s-9.996 0.269-11.914 4.829c-1.952 4.578 0.253 9.829 4.913 11.712zM489.878 509.591c-108.631-89.095-250.847-272.619-371.456-487.002l-0.068 0.083-21.083-37.203 22.481-8.649 11.88 31.298c64.344 115.981 238.899 418.872 558.074 620.113 0 0 118.828 70.772 235.904 168.65-28.504-23.827-84.737-53.692-115.227-72.959-80.025-50.561-178.779-98.079-320.505-214.33zM102.707 191.743c-24.702-87.31-23.289-153.807-13.729-172.081h14.942c41.259 85.46 239.975 395.030 363.663 491.929 128.149 100.402 227.001 158.822 310.141 201.427 29.195 14.958 59.143 35.217 86.15 55.527 32.795 25.862 66.041 53.525 95.153 80.597l-84.383-55.341 37.624 57.547-71.833-73.042 46.744 79.688c-110.583-9.977-213.204-65.303-213.204-65.303-41.055-48.697-74.119-126.162-74.119-126.162-1.145 38.735 25.089 97.389 25.089 97.389-19.384-8.851-93.034-50.918-93.034-50.918-36.025-29.884-47.214-108.461-47.214-108.461-6.85 30.994 17.095 90.745 17.095 90.745-103.768-59.768-177.888-161.581-177.888-161.581-51.304-100.705-9.12-179.283-25.089-160.471s-12.535 87.427-12.535 87.427c-108.328-104.038-119.719-153.825-119.719-153.825-18.24-44.269-34.208-162.692-34.208-162.692-10.264 11.072 0 73.042 0 73.042-26.231-55.341-13.679-107.351-13.679-107.351-12.535 4.439-15.966 81.909-15.966 81.909zM959.043 814.093c0 0-41.711-40.417-95.153-80.597-83.778-66.076-164.443-120.090-164.443-120.090-316.013-186.735-492.1-491.475-550.299-595.964h30.942c10.936 8.768 27.36 15.378 95.945 35.232 86.655 25.089 138.345 77.467 138.345 77.467s-79.050-44.269-116.304-39.845-87.31-9.59-87.31-9.59-19.116 8.851 75.146 22.867 249.33 119.518 249.33 119.518-59.295-24.347-86.655-22.126c-27.36 2.221-95.017 0-95.017 0 44.842 10.332 86.655 4.424 155.069 30.253s64.613 23.607 64.613 23.607c77.535 25.828 109.742 106.24 109.742 106.24-13.411-5.166-115.833-17.701-158.318-5.166-42.487 12.535-114.871 0-114.871 0 68.415 22.867 83.626 12.535 100.334 13.275 16.724 0.74 70.704-3.685 177.888 33.197s137.587 82.633 137.587 82.633l-72.285-9.658c47.199 7.941 100.402 39.171 100.402 39.171-32.693-8.851-83.626-13.275-83.626-13.275 60.053 13.275 93.503 31.719 93.503 31.719 56.251 42.791 69.173 106.24 69.173 106.24-79.824-27.292-142.906-14.756-142.906-14.756 109.473 7.369 139.877 35.419 155.069 42.048 15.211 6.645 21.47 34.122 21.47 34.122-55.307-19.922-118.020-23.236-118.020-23.236 67.842 10.515 125.977 44.826 125.977 44.826v34.345c-26.231-14.942-72.387-26.568-72.387-26.568l71.83 46.475c4.037 23.252-14.775 37.637-14.775 37.637zM72.857-40.913l42.723-17.114 7.957 18.914-42.72 17.111zM547.676-25.095c-141.154-67.861-276.758-114.116-457.102-120.173-16.826-0.573-16.91-17.398 0-16.826 161.331 5.417 295.571 40.096 425.031 100.773 144.217 67.607 276.675 124.26 457.319 143.511 16.659 1.785 9.574 17.987-6.967 16.22-159.981-17.065-289.965-61.822-418.28-123.506z" />
<glyph unicode="&#xe901;" glyph-name="pause-button" data-tags="pause-button" d="M300.051 817.147h-52.903c-55.128 0-99.971-44.847-99.971-99.971v-830.079c0-55.128 44.847-99.974 99.971-99.974h52.903c55.128 0 99.974 44.85 99.974 99.974v830.079c-0.003 55.128-44.854 99.971-99.974 99.971zM354.097-112.899c0-29.802-24.25-54.052-54.052-54.052h-52.899c-29.802 0-54.049 24.25-54.049 54.052v830.075c0 29.802 24.247 54.049 54.049 54.049h52.903c29.802 0 54.052-24.247 54.052-54.049v-830.075zM782.872 817.147h-52.903c-55.128 0-99.974-44.847-99.974-99.971v-830.079c0-55.128 44.85-99.974 99.974-99.974h52.903c55.128 0 99.971 44.85 99.971 99.974v830.079c0 55.128-44.847 99.971-99.971 99.971zM836.918-112.899c0-29.802-24.247-54.052-54.049-54.052h-52.903c-29.802 0-54.052 24.25-54.052 54.052v830.075c0 29.802 24.25 54.049 54.052 54.049h52.903c29.802 0 54.049-24.247 54.049-54.049v-830.075z" />
<glyph unicode="&#xe902;" glyph-name="play-button" data-tags="play-button" d="M121.999-212.874c-43.097 0-62.386 36.933-62.386 73.533v882.957c-0.003 36.601 19.286 73.533 62.38 73.533 13.954 0 28.419-4.27 43.006-12.693l764.669-441.465c25.893-14.958 40.743-37.129 40.743-60.845s-14.844-45.893-40.74-60.842l-764.676-441.481c-14.583-8.416-29.049-12.686-42.996-12.686zM121.993 771.221c-14.319 0-16.457-17.295-16.457-27.608v-882.957c0-10.31 2.138-27.608 16.46-27.608 3.973 0 10.675 1.134 20.037 6.535l764.673 441.478c11.134 6.425 17.777 14.306 17.777 21.074s-6.643 14.645-17.781 21.078l-764.669 441.465c-9.358 5.404-16.066 6.539-20.040 6.539z" />
<glyph unicode="&#xe903;" glyph-name="check-square-o" data-tags="check-square-o" horiz-adv-x="961" d="M809.301 307.118v-182.782c0-91.391-74.146-165.539-165.539-165.539h-478.225c-91.391 0-165.539 74.146-165.539 165.539v478.225c0 91.391 74.146 165.539 165.539 165.539h478.225c22.989 0 45.984-4.595 67.25-14.37 5.173-2.298 9.197-7.471 10.346-13.221 1.149-6.322-0.577-12.072-5.173-16.667l-28.163-28.163c-3.447-3.447-8.619-5.75-13.221-5.75-1.726 0-3.447 0.577-5.173 1.149-8.619 2.298-17.245 3.447-25.864 3.447h-478.225c-50.58 0-91.967-41.383-91.967-91.967v-478.225c0-50.58 41.383-91.967 91.967-91.967h478.225c50.58 0 91.967 41.383 91.967 91.967v145.996c0 4.595 1.726 9.197 5.173 12.643l36.787 36.787c4.024 4.024 8.619 5.75 13.221 5.75 2.298 0 4.595-0.577 6.899-1.726 6.899-2.875 11.495-9.197 11.495-16.667zM942.077 588.19l-467.878-467.878c-18.394-18.394-47.133-18.394-65.527 0l-247.158 247.158c-18.394 18.394-18.394 47.133 0 65.527l63.228 63.228c18.394 18.394 47.133 18.394 65.527 0l151.169-151.169 371.887 371.887c18.394 18.394 47.133 18.394 65.527 0l63.228-63.228c18.394-18.394 18.394-47.133 0-65.527z" />
<glyph unicode="&#xe904;" glyph-name="bag" data-tags="bag" d="M968.812-180.899l-58.902 728.925c-1.162 14.38-13.173 25.46-27.601 25.46h-158.132v35.053c0 115.026-92.348 208.608-207.378 208.608h-3.658c-115.026 0-209.837-93.58-209.837-208.608v-35.053h-155.673c-14.427 0-26.439-11.080-27.601-25.46l-59.070-730.982c-0.626-7.709 2.005-15.322 7.247-21.001s12.624-8.918 20.354-8.918h852.813c0.022 0 0.051 0 0.073 0 15.296 0 27.689 12.393 27.689 27.689 0 1.456-0.11 2.892-0.327 4.285zM358.688 608.541c0 84.49 69.967 153.229 154.459 153.229h3.658c84.49 0 152-68.738 152-153.229v-35.053h-310.114v35.053z" />
<glyph unicode="&#xe905;" glyph-name="telephone-receiver" data-tags="telephone-receiver" d="M890.152 78.193l-5.577 6.954c-44.162 55.834-81.071 84.892-112.745 88.71-27.383 3.736-53.861-15.194-82.016-34.679l-30.083-18.796c-3.608-1.804-7.167-3.261-10.513-4.248-17.595-4.979-62.015-7.899-87.166 15.109-29.27 26.78-74.678 75.793-109.997 118.625-33.734 44.333-70.814 99.611-90.171 134.418-16.352 29.486-2.663 70.729 6.479 86.008 1.804 3.005 4.163 5.967 6.783 8.886l26.524 24.507c0.384 0.384 0.561 0.859 0.902 1.201 0.256 0.256 0.689 0.171 0.987 0.384 23.946 20.216 48.711 41.029 52.103 67.767 3.992 31.418-15.535 73.904-59.783 129.697l-5.406 6.954c-27.383 35.105-68.797 88.196-128.281 79.44-23.391-3.474-44.29-11.458-65.835-24.976-0.213-0.128-0.341-0.384-0.518-0.518s-0.384-0.128-0.561-0.256l-29.998-22.233c-0.299-0.171-0.469-0.561-0.774-0.817-0.213-0.213-0.561-0.256-0.817-0.469-3.474-2.919-6.954-5.924-10.385-9.014-30.431-27.121-96.308-105.877-51.372-251.539 29.011-94.076 88.84-203.858 173.43-318.104l-0.817-0.689 46.651-58.112 0.384 0.299c91.714-108.496 185.061-192.356 270.594-243.128 57.082-33.905 106.949-45.107 147.98-45.107 53.992 0 92.657 19.399 112.057 32.015l12.189 8.155c1.371 0.945 2.359 2.273 3.346 3.474l26.567 19.999c0.299 0.256 0.469 0.603 0.774 0.859 0.128 0.128 0.341 0.085 0.518 0.213 18.881 17.254 31.973 35.319 41.072 56.735 23.562 54.891-18.625 107.466-46.521 142.272zM905.13-50.602c-7.082-16.651-17.425-30.815-32.361-44.547l-39.527-29.742c-35.794-23.263-112.315-52.018-223.471 13.993-85.534 50.771-179.695 136.606-272.355 248.234l-25.061 31.674c-87.251 115.706-148.624 226.519-177.593 320.422-37.641 122.101 9.788 187.592 41.543 215.875 3.218 2.919 6.436 5.619 9.611 8.325l0.128 0.128 28.797 21.331c17.51 11.074 33.734 17.254 52.402 20.088 39.871 6.009 72.315-36.050 96.136-66.609l5.577-7.082c49.44-62.361 54.206-92.016 52.658-104.117-1.719-13.433-22.148-30.644-40.17-45.795l-2.529-2.145c-0.085-0.085-0.128-0.213-0.213-0.299-0.128-0.085-0.256-0.128-0.384-0.213l-27.426-25.366c-0.171-0.171-0.256-0.384-0.427-0.603s-0.518-0.299-0.689-0.518c-4.248-4.766-7.899-9.526-10.861-14.463-15.407-25.793-29.955-79.097-6.997-120.34 20.043-36.050 58.198-93.003 93.261-139.009 36.653-44.461 83.387-94.934 113.689-122.616 22.703-20.728 54.291-27.682 81.629-27.682 14.633 0 28.066 2.017 38.238 4.894 5.363 1.548 10.903 3.779 16.608 6.564 0.341 0.171 0.518 0.469 0.859 0.689 0.171 0.085 0.427 0.043 0.603 0.171l31.845 19.911c1.030 0.689 1.719 1.591 2.578 2.444l0.384-0.427c19.613 13.603 41.974 29.571 55.964 27.254 12.403-1.499 40.557-13.433 90.085-75.964l5.711-7.167c24.12-30.083 57.168-71.285 41.761-107.294z" />
<glyph unicode="&#xe906;" glyph-name="phone" data-tags="phone" d="M493.477 191.84c-0.838 0.582-97.658 163.355-97.98 165.447-20.021 43.746-36.178 88.484-2.508 108.345l-139.728 235.617c-36.21-27.068-138.634-173.977 53.080-506.9 201.948-350.851 394.144-336.269 432.673-312.515l-136.156 229.984c-32.186-18.924-59.292 12.264-109.375 80.020zM832.45-28.875l0.032 0.192c0 0-106.318 179.159-106.382 179.224-8.432 14.196-26.556 18.668-40.688 10.428l-65.148-38.53 136.542-230.66c0 0 65.148 38.334 65.116 38.464h0.128c14.97 8.886 18.412 27.232 10.396 40.88zM475.934 514.493v0.128c14.97 8.854 18.476 27.199 10.46 40.72l0.064 0.192c0 0-109.375 184.406-109.44 184.438-8.4 14.26-26.588 18.668-40.656 10.428l-65.148-38.53 139.568-235.746c0 0 65.116 38.27 65.148 38.366z" />
<glyph unicode="&#xe907;" glyph-name="instagram" data-tags="instagram" d="M875.517 808.564h-721.014c-56.65 0-103.001-46.35-103.001-103.001v-721.014c0-56.701 46.35-103.001 103.001-103.001h721.014c56.65 0 103.001 46.299 103.001 103.001v721.014c0 56.65-46.35 103.001-103.001 103.001zM514.187 60.614c157.542 0 285.213 127.774 285.213 285.264 0 17.408-2.214 34.195-5.304 50.675h81.422v-371.632c0-19.672-15.968-35.538-35.692-35.538h-649.634c-19.724 0-35.692 15.86-35.692 35.538v371.632h79.777c-3.141-16.48-5.355-33.267-5.355-50.675 0-157.542 127.774-285.264 285.264-285.264zM335.941 345.878c0 98.47 79.828 178.245 178.296 178.245 98.419 0 178.296-79.777 178.296-178.245s-79.879-178.296-178.296-178.296c-98.522 0-178.296 79.828-178.296 178.296zM839.827 551.059h-83.174c-19.672 0-35.64 16.070-35.64 35.64v83.276c0 19.672 15.968 35.589 35.589 35.589h83.174c19.775 0 35.743-15.914 35.743-35.589v-83.225c0-19.621-15.968-35.692-35.692-35.692z" />
<glyph unicode="&#xe908;" glyph-name="curved-arrows" data-tags="curved-arrows" d="M572.863-102.64c0 16.695 11.929 31.004 28.621 35.777 178.881 40.546 305.291 197.962 305.291 383.999s-126.41 343.451-305.291 383.999c-19.084 4.773-31.004 23.848-26.236 42.933s23.848 31.004 42.933 26.236c212.272-47.7 360.146-236.122 360.146-453.164s-147.875-405.463-360.146-453.164c-19.084-4.773-38.16 7.156-42.933 26.236 0 2.383-2.383 4.773-2.383 7.156zM563.323-114.567c0 4.773 0 9.539 2.383 14.312l52.471 124.024c7.156 19.084 28.621 26.236 47.7 19.084s26.236-28.621 19.084-47.7l-38.16-90.632 90.632-38.16c19.084-7.156 26.236-28.621 19.084-47.7s-28.621-26.236-47.7-19.084l-124.024 52.471c-9.539 4.773-16.695 9.539-19.084 19.084-2.385 4.771-2.385 9.537-2.385 14.309zM38.607 309.977c0 217.042 147.875 405.463 360.146 453.164 19.084 4.773 38.16-7.156 42.933-26.236s-7.156-38.16-26.236-42.933c-178.881-40.546-305.291-197.962-305.291-383.999s126.408-343.451 305.291-383.999c19.084-4.773 31.004-23.848 26.236-42.933s-23.85-31.004-42.933-26.236c-212.27 47.7-360.146 233.737-360.146 453.164zM258.032 791.763c0 4.773 0 9.539 2.383 14.312 7.156 19.084 28.621 26.236 47.7 19.084l124.024-52.471c19.084-7.156 26.236-28.621 19.084-47.7l-52.471-124.024c-7.156-19.084-28.621-26.236-47.7-19.084-19.084 7.156-26.236 28.621-19.084 47.7l38.16 90.632-88.246 38.16c-14.312 4.771-23.85 19.082-23.85 33.391z" />
<glyph unicode="&#xe909;" glyph-name="shopping-cart" data-tags="shopping-cart" d="M291.314 149.342h623.174l117.547 471.556h-846.684l-32.709 128.111h-152.643v-44.294h118.57l135.604-530.5-24.871-49.743c-13.289-27.257-11.927-58.604 4.089-84.159 10.222-16.017 24.871-27.937 41.91-34.755-12.267-16.354-19.76-36.454-19.76-58.266 0-53.493 43.272-96.762 96.762-96.762s96.762 43.272 96.762 96.762c0 19.422-5.794 37.478-15.333 52.472h221.128c-9.883-14.993-15.333-33.050-15.333-52.472 0-53.493 43.272-96.762 96.762-96.762s96.769 43.269 96.769 96.762c0 19.422-5.794 37.478-15.333 52.472h70.871v44.29h-581.951c-14.651 0-27.599 7.155-35.434 19.76-7.837 12.267-8.517 27.599-2.044 40.889l22.146 44.631zM735.954-0.235c28.961 0 52.472-23.51 52.472-52.472s-23.51-52.472-52.472-52.472-52.472 23.51-52.472 52.472c0 28.96 23.51 52.472 52.472 52.472zM352.302-0.235c28.961 0 52.472-23.51 52.472-52.472s-23.51-52.472-52.472-52.472-52.472 23.51-52.472 52.472c0 28.96 23.513 52.472 52.472 52.472zM196.935 576.602h778.542l-95.74-382.966h-585.013l-97.785 382.966z" />
<glyph unicode="&#xe90a;" glyph-name="shopping-basket" data-tags="shopping-basket" d="M953.51 484.864h-53.498c-0.406 0.452-0.794 0.926-1.228 1.358l-291.661 291.663c-13.142 13.144-34.451 13.144-47.59 0s-13.144-34.451 0-47.59l245.429-245.429h-577.881l245.431 245.429c13.144 13.144 13.144 34.451 0 47.59-13.142 13.144-34.451 13.144-47.59 0l-291.663-291.663c-0.434-0.434-0.822-0.908-1.228-1.358h-53.496c-43.298 0-78.525-35.224-78.525-78.523v-44.874c0-41.242 31.958-75.158 72.412-78.288l64.504-387.019c8.15-48.884 50.032-84.362 99.588-84.362h568.889c49.92 0 92.885 37.264 99.946 86.682l54.964 384.756c40.132 3.452 71.734 37.222 71.734 78.232v44.874c0.002 43.296-35.222 78.523-78.523 78.523zM964.729 361.469c0-6.186-5.034-11.218-11.218-11.218-10.332 0-321.789 0-336.532 0-18.584 0-33.656-15.070-33.656-33.656 0-18.584 15.070-33.656 33.656-33.656h275.296l-53.564-374.947c-2.352-16.472-16.674-28.892-33.316-28.892h-568.891c-16.518 0-30.482 11.827-33.194 28.118l-62.618 375.719h274.37c18.584 0 33.656 15.070 33.656 33.656 0 18.584-15.070 33.656-33.656 33.656-14.762 0-326.244 0-336.532 0-6.186 0-11.218 5.034-11.218 11.218v44.874c0 6.186 5.034 11.218 11.218 11.218h874.986c6.186 0 11.218-5.034 11.218-11.218v-44.874zM314.098 215.638c-18.584 0-33.656-15.070-33.656-33.656v-201.92c0-18.584 15.070-33.656 33.656-33.656s33.656 15.070 33.656 33.656v201.922c0 18.584-15.070 33.654-33.656 33.654zM516.016 215.638c-18.584 0-33.656-15.070-33.656-33.656v-201.92c0-18.584 15.070-33.656 33.656-33.656 18.584 0 33.656 15.070 33.656 33.656v201.922c0 18.584-15.072 33.654-33.656 33.654zM717.937 215.638c-18.584 0-33.656-15.070-33.656-33.656v-201.92c0-18.584 15.070-33.656 33.656-33.656 18.584 0 33.656 15.070 33.656 33.656v201.922c0 18.584-15.072 33.654-33.656 33.654z" />
<glyph unicode="&#xe90b;" glyph-name="time" data-tags="time" d="M516.016 702.912c-231.596 0-419.264-187.701-419.264-419.264s187.669-419.264 419.264-419.264c231.531 0 419.264 187.701 419.264 419.264s-187.701 419.264-419.264 419.264zM512.632-55.862c-187.024 0-338.636 151.612-338.636 338.636s151.612 338.636 338.636 338.636c186.992 0 338.636-151.612 338.636-338.636s-151.645-338.636-338.636-338.636zM610.513 263.294h-96.108v162.287c0 17.608-14.288 31.928-31.896 31.928-17.64 0-31.928-14.288-31.928-31.928v-194.184c0-17.64 14.288-31.896 31.928-31.896h128.005c17.64 0 31.928 14.256 31.928 31.896 0 17.608-14.288 31.896-31.928 31.896z" />
<glyph unicode="&#xe90c;" glyph-name="heart" data-tags="heart" d="M467.788-132.033c12.823-12.823 30.063-19.971 48.146-19.971 17.868 0 35.533 7.357 48.146 19.971l377.806 377.806c57.397 57.397 88.933 133.714 89.144 214.657 0 81.153-31.538 157.471-88.933 214.868s-133.504 88.933-214.657 88.933c-79.683 0-154.739-30.487-211.715-85.99-57.188 55.712-132.453 86.409-212.344 86.409-80.945 0-157.050-31.538-214.446-88.721-57.397-57.397-88.933-133.714-88.933-214.868 0-80.945 31.747-157.261 89.144-214.657l378.646-378.435zM125.514 639.347c47.513 47.513 110.798 73.796 178.075 73.796s130.77-26.283 178.495-74.005l15.557-15.557c4.838-4.838 11.353-7.566 18.292-7.566v0c6.731 0 13.455 2.736 18.292 7.566l15.139 15.139c47.725 47.725 111.007 74.005 178.495 74.005 67.278 0 130.559-26.283 178.075-73.796 47.725-47.725 73.796-111.007 73.796-178.285s-26.283-130.559-74.005-178.285l-378.015-378.015c-6.097-6.097-17.241-6.097-23.548 0l-378.435 378.435c-47.725 47.725-74.005 111.007-74.005 178.285s26.283 130.559 73.796 178.285z" />
<glyph unicode="&#xe90d;" glyph-name="speech-bubble" data-tags="speech-bubble" d="M808.667-216.247l-322.749 264.85h-379.106c-58.811 0-106.639 48.674-106.639 108.528v550.13c0 59.85 47.826 108.528 106.639 108.528h818.412c58.811 0 106.639-48.674 106.639-108.528v-550.132c0-59.85-47.826-108.528-106.639-108.528h-116.556v-264.848zM106.812 751.309c-23.239 0-42.157-19.771-42.157-44.048v-550.132c0-24.277 18.919-44.048 42.157-44.048h402.152l235.221-193v193h181.036c23.239 0 42.157 19.771 42.157 44.048v550.132c0 24.277-18.919 44.048-42.157 44.048h-818.41zM159.675 627.258h712.686v-64.483h-712.686v64.483zM159.675 469.174h583.725v-64.483h-583.725v64.483zM159.675 311.121h454.763v-64.483h-454.763v64.483z" />
<glyph unicode="&#xe90e;" glyph-name="opened-eye" data-tags="opened-eye" d="M1025.492 324.589c-162.7 180.818-334.281 272.47-510.482 272.47s-347.781-91.651-510.482-272.47c-6.040-6.752-6.040-17.054 0-23.8 162.7-180.462 334.281-272.114 510.482-272.114s347.781 91.651 510.482 272.47c6.040 6.752 6.040 16.695 0 23.447zM515.009 64.198c-161.635 0-321.138 83.481-473.181 248.669 152.399 165.187 311.546 248.669 473.181 248.669s321.138-83.481 473.181-248.669c-152.042-165.187-311.546-248.669-473.181-248.669zM515.009 508.249c-107.639 0-195.382-87.745-195.382-195.382s87.745-195.382 195.382-195.382 195.382 87.745 195.382 195.382-87.745 195.382-195.382 195.382zM515.009 153.008c-88.101 0-159.859 71.759-159.859 159.859s71.759 159.859 159.859 159.859 159.859-71.759 159.859-159.859-71.759-159.859-159.859-159.859zM522.827 440.753c-0.353 4.974-4.974 8.524-9.949 7.818-72.47-7.818-128.953-66.074-134.281-138.544-0.353-4.974 3.196-9.236 8.171-9.589 0.353 0 0.353 0 0.712 0 4.617 0 8.524 3.55 8.883 8.171 4.974 63.942 54.705 115.453 118.651 122.558 4.974 0.353 8.524 4.974 7.818 9.589zM550.535 312.867c0-19.619-15.905-35.526-35.526-35.526s-35.526 15.905-35.526 35.526c0 19.619 15.905 35.526 35.526 35.526s35.526-15.905 35.526-35.526z" />
<glyph unicode="&#xe90f;" glyph-name="shopping-bag" data-tags="shopping-bag" d="M923.794-44.135l-59.1 666.033c-1.063 13.181-12.118 23.173-25.511 23.173h-124.576c-0.212 110.757-90.349 200.894-201.106 200.894s-200.894-90.137-201.106-200.894h-124.576c-13.181 0-24.236-9.992-25.511-23.173l-59.1-666.033c0-0.851 0-1.487 0-2.338 0-74.192 68.242-134.566 151.999-134.566h516.584c83.76 0 151.999 60.375 151.999 134.566 0 0.851 0 1.487 0 2.338zM513.502 794.944c82.697 0 149.873-67.178 150.086-149.873h-300.173c0.212 82.697 67.391 149.873 150.086 149.873zM771.796-129.809h-516.584c-55.273 0-100.341 36.778-100.979 82.483l56.974 641.374h101.192v-89.498c0-14.032 11.479-25.511 25.511-25.511s25.511 11.479 25.511 25.511v89.498h300.173v-89.498c0-14.032 11.479-25.511 25.511-25.511s25.511 11.479 25.511 25.511v89.498h101.192l56.974-641.587c-0.639-45.492-45.707-82.27-100.979-82.27z" />
<glyph unicode="&#xea0d;" glyph-name="cancel-circle" data-tags="cancel-circle" d="M515.009 860.065c-284.432 0-515.009-230.578-515.009-515.009s230.578-515.009 515.009-515.009 515.009 230.578 515.009 515.009-230.578 515.009-515.009 515.009zM515.009-73.391c-231.101 0-418.446 187.345-418.446 418.446s187.345 418.446 418.446 418.446 418.446-187.345 418.446-418.446-187.345-418.446-418.446-418.446zM675.951 602.56l-160.941-160.941-160.941 160.941-96.564-96.564 160.941-160.941-160.941-160.941 96.564-96.564 160.941 160.941 160.941-160.941 96.564 96.564-160.941 160.941 160.941 160.941z" />
<glyph unicode="&#xeab7;" glyph-name="blogger" data-tags="blogger" d="M963.427 473.807h-57.742c-35.372 0-66.378 29.916-68.792 64.378v0c0.004 183.742-148.124 321.881-333.137 321.881h-168.811c-184.893 0-334.813-148.87-334.943-332.61v-364.931c0-183.728 150.051-332.479 334.941-332.479h360.527c185.030 0 334.551 148.752 334.551 332.479v235.76c0 36.718-29.614 75.524-66.594 75.524zM321.881 602.56h193.129c35.407 0 64.378-28.968 64.378-64.378s-28.968-64.378-64.378-64.378h-193.129c-35.407 0-64.378 28.968-64.378 64.378s28.968 64.378 64.378 64.378zM708.14 87.55h-386.257c-35.407 0-64.378 28.968-64.378 64.378s28.968 64.378 64.378 64.378h386.257c35.407 0 64.378-28.968 64.378-64.378s-28.968-64.378-64.378-64.378z" />
<glyph unicode="&#xead1;" glyph-name="pinterest" data-tags="pinterest" d="M515.009 791.264c-246.44 0-446.208-199.768-446.208-446.208 0-189.105 117.688-350.449 283.658-415.429-3.824 35.204-7.442 89.522 1.612 127.948 8.048 34.804 52.306 221.695 52.306 221.695s-13.278 26.756-13.278 66.187c0 61.961 36.010 108.434 80.672 108.434 38.022 0 56.53-28.568 56.53-62.766 0-38.222-24.344-95.558-37.016-148.468-10.66-44.458 22.132-80.672 65.984-80.672 79.262 0 140.22 83.689 140.22 204.395 0 106.824-76.85 181.461-186.289 181.461-126.942 0-201.377-95.157-201.377-193.732 0-38.423 14.684-79.464 33.192-101.794 3.624-4.424 4.224-8.248 3.018-12.878-3.418-14.084-10.866-44.458-12.472-50.695-2.012-8.248-6.436-9.86-14.887-6.036-55.724 25.95-90.528 107.429-90.528 172.81 0 140.823 102.198 269.978 294.723 269.978 154.704 0 275.008-110.244 275.008-257.706 0-153.699-96.967-277.623-231.553-277.623-45.264 0-87.712 23.538-102.198 51.3 0 0-22.332-85.098-27.762-106.019-10.060-38.828-37.216-87.31-55.524-116.884 41.846-12.878 86.104-19.914 132.173-19.914 246.44 0 446.208 199.768 446.208 446.208 0 246.642-199.768 446.41-446.208 446.41z" />
<glyph unicode="&#xf008;" glyph-name="menu" data-tags="menu" horiz-adv-x="1105" d="M70.040 5.491q0-30.9 21.63-52.53t52.53-21.63h816.807q30.9 0 52.53 21.63t21.63 52.53-21.63 52.53-52.53 21.63h-816.807q-29.87 0-52.53-21.63t-21.63-52.53zM70.040 302.136q0-30.9 21.63-52.53t52.53-21.63h816.807q30.9 0 52.53 21.63t21.63 52.53-21.63 52.53-52.53 21.63h-816.807q-29.87 0-52.53-21.63t-21.63-52.53zM70.040 598.782q0-30.9 21.63-52.53t52.53-21.63h816.807q30.9 0 52.53 21.63t21.63 52.53-21.63 52.53-52.53 21.63h-816.807q-29.87 0-52.53-21.63t-21.63-52.53z" />
<glyph unicode="&#xf086;" glyph-name="info-circled-alt" data-tags="info-circled-alt" horiz-adv-x="965" d="M0 302.136q0 97.851 38.11 187.464t103.001 153.473 153.473 103.001 188.494 38.11q97.851 0 187.464-38.11t153.473-103.001 103.001-153.473 38.11-187.464q0-97.851-38.11-187.464t-103.001-154.503-153.473-103.001-187.464-38.11-188.494 38.11-153.473 103.001-103.001 154.503-38.11 187.464zM120.512 302.136q0-73.13 28.84-141.113t77.25-115.362 115.362-77.25 141.113-28.84 140.083 28.84 115.362 77.25 77.25 115.362 28.84 141.113-28.84 140.083-77.25 115.362-115.362 77.25-140.083 28.84-141.113-28.84-115.362-77.25-77.25-115.362-28.84-140.083zM409.948 477.24q0 28.84 20.6 46.35t52.53 17.51q32.96 0 52.53-17.51t19.57-46.35-19.57-47.38-52.53-17.51q-32.96 0-52.53 17.51t-20.6 47.38zM415.098 63.172v307.976h135.963v-307.976h-135.963z" />
<glyph unicode="&#xf099;" glyph-name="twitter" data-tags="twitter" horiz-adv-x="956" d="M931.139 582.301q-38.11-55.62-92.701-95.791 0-8.24 0-23.69 0-75.19-21.63-149.353t-65.92-143.173-106.092-120.512-148.323-84.46-186.434-30.9q-155.533 0-284.286 83.43 19.57-2.060 44.29-2.060 129.782 0 230.724 79.31-60.77 1.030-108.152 37.080t-65.92 91.671q19.57-3.090 35.020-3.090 24.72 0 49.44 6.18-64.89 13.39-107.122 63.86t-42.23 118.452v2.060q39.14-21.63 84.46-23.69-38.11 25.75-60.77 65.92t-22.66 88.581q0 50.47 25.75 93.731 70.040-85.49 168.923-136.993t214.244-56.65q-5.15 21.63-5.15 42.23 0 77.25 54.59 130.812t130.812 54.59q81.37 0 135.963-58.71 62.83 12.36 118.452 45.32-21.63-65.92-82.4-103.001 53.56 6.18 107.122 28.84z" />
<glyph unicode="&#xf09a;" glyph-name="facebook" data-tags="facebook" horiz-adv-x="591" d="M542.455 773.369v-151.413h-89.611q-49.44 0-66.95-20.6t-17.51-61.8v-109.182h168.923l-22.66-169.953h-146.263v-436.728h-176.134v436.728h-146.263v169.953h146.263v125.662q0 107.122 59.74 165.833t159.653 58.71q84.46 0 130.812-7.21z" />
<glyph unicode="&#xf0cd;" glyph-name="underline" data-tags="underline" horiz-adv-x="884" d="M27.81 689.427q-21.63 1.030-25.75 2.060l-2.060 50.47q7.21 1.030 22.66 1.030 35.020 0 64.89-3.090 76.22-4.12 95.791-4.12 48.41 0 95.791 2.060 66.95 2.060 84.46 3.090 31.93 0 49.44 1.030l-1.030-8.24 1.030-37.080v-5.15q-33.99-5.15-71.070-5.15-33.99 0-45.32-14.42-7.21-7.21-7.21-75.19 0-7.21 0-18.54t0-15.45l1.030-130.812 8.24-161.713q3.090-71.070 28.84-115.362 20.6-33.99 55.62-53.56 50.47-26.78 100.941-26.78 60.77 0 110.212 16.48 31.93 10.3 56.65 28.84 27.81 20.6 38.11 37.080 20.6 31.93 29.87 64.89 12.36 42.23 12.36 131.843 0 45.32-2.060 74.16t-6.18 70.040-8.24 91.671l-2.060 33.99q-3.090 38.11-13.39 50.47-19.57 20.6-44.29 19.57l-57.68-1.030-8.24 2.060 1.030 49.44h48.41l117.422-6.18q44.29-2.060 113.302 6.18l10.3-1.030q3.090-22.66 3.090-29.87 0-4.12-2.060-17.51-25.75-7.21-48.41-8.24-42.23-6.18-45.32-9.27-8.24-8.24-8.24-23.69 0-4.12 0-15.45t1.030-17.51q5.15-11.33 13.39-227.634 3.090-112.272-9.27-175.103-8.24-43.26-23.69-70.040-21.63-37.080-63.86-71.070-43.26-31.93-105.061-50.47-62.83-19.57-146.263-19.57-95.791 0-163.773 26.78t-101.971 70.040q-35.020 43.26-48.41 112.272-9.27 46.35-9.27 135.963v191.584q0 108.152-9.27 122.572-14.42 20.6-84.46 22.66zM882.728-121.202v37.080q0 8.24-5.15 13.39t-13.39 5.15h-845.647q-8.24 0-13.39-5.15t-5.15-13.39v-37.080q0-8.24 5.15-13.39t13.39-5.15h845.647q8.24 0 13.39 5.15t5.15 13.39z" />
<glyph unicode="&#xf0d5;" glyph-name="gplus" data-tags="gplus" horiz-adv-x="1322" d="M826.077 292.866q0-120.512-50.47-213.214t-142.143-146.263-212.184-52.53q-85.49 0-163.773 32.96t-134.933 89.611-89.611 134.933-32.96 163.773 32.96 163.773 89.611 134.933 134.933 89.611 163.773 32.96q164.803 0 282.226-110.212l-114.332-110.212q-66.95 64.89-167.893 64.89-71.070 0-130.812-35.020t-94.761-96.821-35.020-133.903 35.020-133.903 94.761-96.821 130.812-35.020q47.38 0 87.55 13.39t65.92 32.96 45.32 44.29 27.81 48.41 12.36 42.23h-238.964v145.233h397.588q7.21-37.080 7.21-70.040zM1324.607 362.908v-121.542h-120.512v-119.482h-120.512v119.482h-120.512v121.542h120.512v119.482h120.512v-119.482h120.512z" />
<glyph unicode="&#xf0e1;" glyph-name="linkedin" data-tags="linkedin" horiz-adv-x="884" d="M200.854 457.669v-569.602h-189.524v569.602h189.524zM213.214 633.802q0-42.23-29.87-70.040t-77.25-27.81h-1.030q-47.38 0-76.22 27.81t-28.84 70.040 29.87 70.040 77.25 27.81 76.22-27.81 29.87-70.040zM882.728 214.585v-326.517h-188.494v304.886q0 60.77-23.69 94.761t-73.13 33.99q-36.050 0-59.74-19.57t-37.080-49.44q-6.18-17.51-6.18-46.35v-318.277h-189.524q1.030 229.694 1.030 371.837t0 169.953l-1.030 27.81h189.524v-82.4h-1.030q11.33 18.54 23.69 31.93t31.93 29.87 50.47 24.72 65.92 9.27q97.851 0 157.593-64.89t59.74-191.584z" />
<glyph unicode="&#xf100;" glyph-name="angle-double-left" data-tags="angle-double-left" horiz-adv-x="591" d="M360.507 26.091q0-7.21-6.18-13.39l-28.84-28.84q-5.15-5.15-12.36-5.15t-13.39 5.15l-267.806 268.836q-6.18 5.15-6.18 12.36t6.18 13.39l267.806 267.806q5.15 6.18 13.39 6.18t12.36-6.18l28.84-28.84q6.18-5.15 6.18-13.39t-6.18-12.36l-225.574-226.604 225.574-225.574q6.18-6.18 6.18-13.39zM580.932 26.091q0-7.21-5.15-13.39l-28.84-28.84q-6.18-5.15-13.39-5.15t-13.39 5.15l-267.806 268.836q-6.18 5.15-6.18 12.36t6.18 13.39l267.806 267.806q6.18 6.18 13.39 6.18t13.39-6.18l28.84-28.84q5.15-5.15 5.15-13.39t-5.15-12.36l-226.604-226.604 226.604-225.574q5.15-6.18 5.15-13.39z" />
<glyph unicode="&#xf101;" glyph-name="angle-double-right" data-tags="angle-double-right" horiz-adv-x="591" d="M227.933 26.091q0-7.21 6.18-13.39l28.84-28.84q5.15-5.15 12.36-5.15t13.39 5.15l267.806 268.836q6.18 5.15 6.18 12.36t-6.18 13.39l-267.806 267.806q-5.15 6.18-13.39 6.18t-12.36-6.18l-28.84-28.84q-6.18-5.15-6.18-13.39t6.18-12.36l225.574-226.604-225.574-225.574q-6.18-6.18-6.18-13.39zM7.506 26.091q0-7.21 5.15-13.39l28.84-28.84q6.18-5.15 13.39-5.15t13.39 5.15l267.806 268.836q6.18 5.15 6.18 12.36t-6.18 13.39l-267.806 267.806q-6.18 6.18-13.39 6.18t-13.39-6.18l-28.84-28.84q-5.15-5.15-5.15-13.39t5.15-12.36l226.604-226.604-226.604-225.574q-5.15-6.18-5.15-13.39z" />
<glyph unicode="&#xf104;" glyph-name="angle-left" data-tags="angle-left" horiz-adv-x="366" d="M359.101 540.078q0-7.182-6.156-12.312l-224.694-225.72 224.694-224.694q6.156-6.156 6.156-13.338t-6.156-13.338l-28.728-28.728q-5.13-5.13-12.312-5.13t-13.338 5.13l-266.761 267.787q-6.156 5.13-6.156 12.312t6.156 13.338l266.761 266.761q5.13 6.156 13.338 6.156t12.312-6.156l28.728-28.728q6.156-5.13 6.156-13.338z" />
<glyph unicode="&#xf105;" glyph-name="angle-right" data-tags="angle-right" horiz-adv-x="366" d="M340.633 302.045q0-7.182-5.13-12.312l-267.787-267.787q-5.13-5.13-12.312-5.13t-13.338 5.13l-28.728 28.728q-6.156 6.156-6.156 13.338t6.156 13.338l224.694 224.694-224.694 225.72q-6.156 5.13-6.156 12.312t6.156 13.338l28.728 28.728q5.13 6.156 13.338 6.156t12.312-6.156l267.787-266.761q5.13-5.13 5.13-13.338z" />
<glyph unicode="&#xf106;" glyph-name="angle-up" data-tags="angle-up" horiz-adv-x="663" d="M618.013 136.303q0-7.21-6.18-12.36l-28.84-28.84q-5.15-6.18-12.36-6.18t-13.39 6.18l-226.604 225.574-225.574-225.574q-5.15-6.18-13.39-6.18t-12.36 6.18l-28.84 28.84q-6.18 5.15-6.18 12.36t6.18 13.39l267.806 267.806q5.15 6.18 12.36 6.18t13.39-6.18l267.806-267.806q6.18-5.15 6.18-13.39z" />
<glyph unicode="&#xf107;" glyph-name="angle-down" data-tags="angle-down" horiz-adv-x="663" d="M618.013 393.808q0-7.21-6.18-12.36l-267.806-268.836q-5.15-5.15-13.39-5.15t-12.36 5.15l-267.806 268.836q-6.18 5.15-6.18 12.36t6.18 13.39l28.84 28.84q5.15 6.18 12.36 6.18t13.39-6.18l225.574-225.574 226.604 225.574q5.15 6.18 13.39 6.18t12.36-6.18l28.84-28.84q6.18-5.15 6.18-13.39z" />
<glyph unicode="&#xf10c;" glyph-name="circle-empty" data-tags="circle-empty" horiz-adv-x="878" d="M439.296 663.296q-84.992 0-156.672-41.984t-112.64-113.664-41.984-155.648 41.984-155.648 112.64-113.664 156.672-41.984 155.648 41.984 112.64 113.664 41.984 155.648-41.984 155.648-112.64 113.664-155.648 41.984zM877.568 352q0-119.808-58.368-220.16t-159.744-159.744-220.16-59.392-221.184 59.392-158.72 159.744-59.392 220.16 59.392 220.16 158.72 159.744 221.184 59.392 220.16-59.392 159.744-159.744 58.368-220.16z" />
<glyph unicode="&#xf10d;" glyph-name="quote-left" data-tags="quote-left" horiz-adv-x="953" d="M440.585 295.49v-219.779q0-46.215-32.864-78.052t-78.052-31.837h-219.779q-45.188 0-78.052 31.837t-31.837 78.052v403.613q0 59.566 23.621 113.997t62.647 93.457 93.457 62.647 113.997 23.621h35.945q15.405 0 26.702-11.297t10.27-25.675v-73.944q0-14.378-10.27-25.675t-26.702-10.27h-35.945q-60.593 0-103.727-43.134t-43.134-103.727v-18.486q0-22.594 16.432-39.026t37.999-16.432h128.375q46.215 0 78.052-31.837t32.864-78.052zM954.089 295.49v-219.779q0-46.215-32.864-78.052t-78.052-31.837h-219.779q-45.188 0-78.052 31.837t-31.837 78.052v403.613q0 59.566 23.621 113.997t62.647 93.457 93.457 62.647 113.997 23.621h35.945q15.405 0 26.702-11.297t10.27-25.675v-73.944q0-14.378-10.27-25.675t-26.702-10.27h-35.945q-60.593 0-103.727-43.134t-43.134-103.727v-18.486q0-22.594 16.432-39.026t37.999-16.432h128.375q46.215 0 78.052-31.837t32.864-78.052z" />
<glyph unicode="&#xf111;" glyph-name="circle" data-tags="circle" horiz-adv-x="881" d="M880.145 332.462q0-120.159-58.539-220.806t-160.212-160.212-220.806-59.566-221.833 59.566-159.185 160.212-59.566 220.806 59.566 220.806 159.185 160.212 221.833 59.566 220.806-59.566 160.212-160.212 58.539-220.806z" />
<glyph unicode="&#xf115;" glyph-name="folder-open-empty" data-tags="folder-open-empty" horiz-adv-x="1103" d="M1023.841 282.566q0 19.57-30.9 19.57h-625.223q-22.66 0-49.44-12.36t-40.17-29.87l-168.923-209.094q-11.33-13.39-11.33-22.66 0-20.6 30.9-20.6h625.223q23.69 0 49.44 13.39t41.2 29.87l168.923 209.094q10.3 12.36 10.3 22.66zM367.717 375.268h441.879v92.701q0 22.66-16.48 39.14t-39.14 15.45h-330.637q-23.69 0-39.14 16.48t-16.48 39.14v37.080q0 22.66-15.45 39.14t-39.14 15.45h-184.374q-22.66 0-39.14-15.45t-16.48-39.14v-490.289l147.293 180.254q25.75 30.9 66.95 50.47t80.34 19.57zM1096.971 282.566q0-36.050-25.75-69.010l-169.953-209.094q-24.72-30.9-66.95-50.47t-80.34-19.57h-625.223q-52.53 0-90.641 38.11t-38.11 90.641v552.092q0 52.53 38.11 90.641t90.641 38.11h184.374q52.53 0 90.641-38.11t38.11-90.641v-18.54h312.096q53.56 0 90.641-38.11t38.11-90.641v-92.701h110.212q30.9 0 57.68-13.39t38.11-41.2q8.24-17.51 8.24-38.11z" />
<glyph unicode="&#xf133;" glyph-name="calendar-empty" data-tags="calendar-empty" horiz-adv-x="956" d="M73.13-139.742h809.597v589.172h-809.597v-589.172zM294.586 559.641v165.833q0 8.24-5.15 13.39t-13.39 5.15h-37.080q-8.24 0-13.39-5.15t-5.15-13.39v-165.833q0-8.24 5.15-13.39t13.39-5.15h37.080q8.24 0 13.39 5.15t5.15 13.39zM735.434 559.641v165.833q0 8.24-5.15 13.39t-13.39 5.15h-36.050q-8.24 0-13.39-5.15t-5.15-13.39v-165.833q0-8.24 5.15-13.39t13.39-5.15h36.050q8.24 0 13.39 5.15t5.15 13.39zM956.89 596.721v-736.465q0-29.87-22.66-51.5t-51.5-21.63h-809.597q-29.87 0-51.5 21.63t-21.63 51.5v736.465q0 29.87 21.63 51.5t51.5 21.63h74.16v55.62q0 38.11 26.78 64.89t64.89 26.78h37.080q38.11 0 64.89-26.78t26.78-64.89v-55.62h220.424v55.62q0 38.11 27.81 64.89t64.89 26.78h36.050q38.11 0 65.92-26.78t26.78-64.89v-55.62h73.13q29.87 0 51.5-21.63t22.66-51.5z" />
<glyph unicode="&#xf178;" glyph-name="right" data-tags="right" d="M991.971 321.463q0-8.232-5.145-14.406l-221.238-202.716q-8.232-8.232-19.551-4.116-11.319 5.145-11.319 17.493v128.626h-716.194q-8.232 0-13.377 5.145t-5.145 12.348v111.133q0 7.203 5.145 12.348t13.377 5.145h716.194v128.626q0 12.348 11.319 17.493t19.551-3.087l221.238-200.658q5.145-6.174 5.145-13.377z" />
<glyph unicode="&#xf231;" glyph-name="pinterest2" data-tags="pinterest2" horiz-adv-x="737" d="M0 474.15q0 61.8 21.63 116.392t59.74 95.791 87.55 71.070 106.092 45.32 116.392 14.42q90.641 0 168.923-38.11t126.692-111.242 48.41-164.803q0-55.62-10.3-108.152t-35.020-101.971-57.68-85.49-82.4-59.74-109.182-21.63q-39.14 0-77.25 18.54t-55.62 50.47q-5.15-22.66-15.45-64.89t-14.42-54.59-11.33-41.2-15.45-40.17-17.51-36.050-26.78-45.32-36.050-49.44l-7.21-3.090-5.15 6.18q-9.27 90.641-9.27 108.152 0 52.53 12.36 118.452t38.11 165.833 29.87 116.392q-18.54 37.080-18.54 96.821 0 48.41 29.87 89.611t76.22 42.23q35.020 0 54.59-23.69t19.57-58.71q0-38.11-24.72-109.182t-25.75-108.152q0-36.050 25.75-59.74t62.83-23.69q31.93 0 58.71 14.42t45.32 39.14 31.93 54.59 21.63 62.83 11.33 63.86 4.12 57.68q0 98.881-62.83 154.503t-164.803 55.62q-114.332 0-191.584-74.16t-77.25-188.494q0-25.75 7.21-49.44t15.45-37.080 15.45-26.78 7.21-17.51q0-15.45-8.24-41.2t-21.63-25.75q-1.030 0-9.27 1.030-29.87 9.27-52.53 31.93t-35.020 54.59-18.54 61.8-6.18 61.8z" />
<glyph unicode="&#xf290;" glyph-name="shopping-bag2" data-tags="shopping-bag2" d="M1010.451 7.551l19.57-179.224q2.060-16.48-9.27-28.84-10.3-12.36-27.81-12.36h-955.86q-16.48 0-27.81 12.36t-9.27 28.84l20.6 179.224h989.851zM956.89 490.63l49.44-445.999h-982.641l49.44 445.999q2.060 13.39 12.36 22.66t24.72 9.27h147.293v-73.13q0-30.9 21.63-52.53t51.5-21.63 52.53 21.63 21.63 52.53v73.13h220.424v-73.13q0-30.9 21.63-52.53t52.53-21.63 51.5 21.63 21.63 52.53v73.13h147.293q14.42 0 24.72-9.27t12.36-22.66zM735.434 596.721v-147.293q0-15.45-10.3-25.75t-25.75-11.33-25.75 11.33-11.33 25.75v147.293q0 60.77-43.26 104.031t-104.031 43.26-104.031-43.26-43.26-104.031v-147.293q0-15.45-10.3-25.75t-26.78-11.33-25.75 11.33-10.3 25.75v147.293q0 90.641 64.89 155.533t155.533 64.89 156.563-64.89 63.86-155.533z" />
<glyph unicode="&#xf2c0;" glyph-name="user-o" data-tags="user-o" horiz-adv-x="884" d="M690.114 367.028q26.78-8.24 51.5-22.66t51.5-41.2 45.32-66.95 31.93-98.881 12.36-135.963q0-88.581-57.68-151.413t-138.023-62.83h-491.319q-80.34 0-138.023 62.83t-57.68 151.413q0 75.19 12.36 135.963t31.93 98.881 45.32 66.95 51.5 41.2 51.5 22.66q-45.32 71.070-45.32 155.533 0 59.74 23.69 114.332t62.83 93.731 93.731 62.83 114.332 23.69 113.302-23.69 94.761-62.83 62.83-93.731 22.66-114.332q0-84.46-45.32-155.533zM441.879 744.017q-91.671 0-156.563-64.89t-64.89-156.563 64.89-155.533 156.563-64.89 155.533 64.89 64.89 155.533-64.89 156.563-155.533 64.89zM687.024-139.742q50.47 0 86.52 41.2t36.050 99.911q0 138.023-45.32 217.334t-129.782 82.4q-83.43-72.1-192.614-72.1t-193.644 72.1q-84.46-3.090-129.782-82.4t-45.32-217.334q0-58.71 36.050-99.911t86.52-41.2h491.319z" />
<glyph unicode="&#xf30f;" glyph-name="gplus2" data-tags="gplus2" horiz-adv-x="921" d="M49.296 560.458q0 59.566 25.675 104.754t57.512 66.755 70.863 34.918 57.512 15.405 26.702 2.054h236.211v-4.108q0-22.594-80.106-36.972-28.756 0-39.026-6.162 41.080-20.54 55.458-57.512t14.378-98.592q0-104.754-69.836-162.266-39.026-39.026-39.026-55.458 0-18.486 51.35-65.728 106.808-92.43 106.808-182.807 0-143.78-119.132-199.239-69.836-34.918-154.050-34.918h-4.108l-4.108 2.054q-2.054-2.054-4.108-2.054-24.648 0-55.458 5.135t-77.025 21.567-75.998 58.539-29.783 105.781q0 61.62 32.864 103.727t85.241 58.539 90.376 22.594 72.917 6.162h2.054q-16.432 22.594-24.648 48.269t-8.216 40.053l2.054 14.378h-14.378q-65.728 0-112.97 30.81-75.998 45.188-75.998 164.32zM429.288 96.25q-4.108 53.404-44.161 86.268t-105.781 32.864h-16.432q-65.728-2.054-117.078-47.242-47.242-43.134-43.134-96.538t54.431-82.16 122.213-24.648q69.836 4.108 111.943 41.080t37.999 90.376zM367.668 609.754q-30.81 110.916-125.294 110.916-12.324 0-20.54-2.054-41.080-12.324-59.566-63.674-16.432-51.35-2.054-108.862 14.378-53.404 48.269-87.295t72.917-33.891q12.324 0 18.486 2.054 43.134 12.324 64.701 66.755t3.081 116.051zM766.146 431.054h154.050v-96.538h-154.050v-154.050h-96.538v154.050h-154.050v96.538h154.050v154.050h96.538v-154.050z" />
</font>
</defs>
</svg>
